<svg width="50" height="50" xmlns="http://www.w3.org/2000/svg"><g fill="none" fill-rule="evenodd"><circle fill="#09BB07" cx="25" cy="25" r="25"/><path d="M13.67 29.935c.318.202-1.053 3.057-.712 3.23.573.293 2.879-2.121 3.51-1.917 1.255.406 2.613.628 4.032.628 6.351 0 11.5-4.45 11.5-9.938C32 16.449 26.851 12 20.5 12S9 16.45 9 21.938c0 3.279 1.837 6.187 4.67 7.997z" fill="#FFF"/><path d="M14.542 28.353c.113.077.68.338.644.71-.082.814-.326 1.372-.326 1.372s.666-.766 1.162-1.135c.22-.164.628-.041.742 0 1.147.412 2.41.64 3.736.64 5.247 0 9.5-3.568 9.5-7.97 0-4.402-4.253-7.97-9.5-7.97S11 17.568 11 21.97c0 2.509 1.382 4.922 3.542 6.383z" fill="#09BB07"/><path d="M31.5 36.926c1.119 0 2.192-.162 3.19-.46.327-.097 2.542 1.848 2.851 1.722.503-.205-.916-2.503-.468-2.775 2.38-1.448 3.927-3.797 3.927-6.45C41 24.565 36.747 21 31.5 21S22 24.565 22 28.963s4.253 7.963 9.5 7.963z" fill="#FFF"/><circle fill="#09BB07" cx="27.5" cy="26.5" r="1.5"/><circle fill="#09BB07" cx="34.5" cy="26.5" r="1.5"/><circle fill="#FFF" cx="16.5" cy="18.5" r="1.5"/><circle fill="#FFF" cx="24.5" cy="18.5" r="1.5"/></g></svg>