<svg width="28" height="28" xmlns="http://www.w3.org/2000/svg"><path d="M8.481 15.042c-.625.062-1.797.338-2.438.903-1.923 1.67-.773 4.726 3.117 4.726 2.26 0 4.52-1.442 6.294-3.75-2.523-1.228-4.663-2.107-6.973-1.88zm13.602 2.111c3.6 1.202 4.417 1.267 4.417 1.267V5.494A3.997 3.997 0 0022.497 1.5H5.505A3.998 3.998 0 001.5 5.494v16.942a3.998 3.998 0 004.005 3.993h16.992a3.997 3.997 0 004.003-3.993v-.164s-6.503-2.703-9.787-4.277c-2.201 2.701-5.043 4.342-7.992 4.342-4.988 0-6.682-4.353-4.32-7.218.515-.624 1.391-1.221 2.75-1.555 2.127-.521 5.512.325 8.685 1.369a17.354 17.354 0 001.408-3.432H7.467v-.987h5.041v-1.77H6.403v-.988h6.105V5.23s0-.426.432-.426h2.464v2.95h6.037v.989h-6.037v1.77h4.928a20.085 20.085 0 01-2.087 5.255c1.496.54 2.839 1.05 3.838 1.384z" fill="#1296DB"/></svg>