<svg width="28" height="28" xmlns="http://www.w3.org/2000/svg"><g transform="translate(.5 .5)" fill="none" fill-rule="evenodd"><circle fill="#F89C5E" cx="13.5" cy="13.5" r="13.5"/><path d="M19.5 21h-12a2 2 0 01-2-2v-4.247C5.5 10.471 8.806 7 12.885 7h1.23c4.08 0 7.385 3.47 7.385 7.753V19a2 2 0 01-2 2z" fill="#FFF"/><path d="M11 9V7.667c0-.736.28-1.404.732-1.886A2.418 2.418 0 0113.5 5h0c.69 0 1.316.299 1.768.78.452.483.732 1.15.732 1.887V9" stroke="#FFF" stroke-width="1.5"/><path d="M15.5 15a2 2 0 11-4.001-.001A2 2 0 0115.5 15" fill="#F89C5E"/></g></svg>