<svg width="28" height="28" xmlns="http://www.w3.org/2000/svg"><g fill="none"><path d="M5.813 6.032c-.713.09-1.425.68-1.658 1.358-.156.423-2.94 12.42-2.954 12.638-.026.628.337 1.09.933 1.205.22.052 7.292.052 7.526 0 .673-.128 1.308-.653 1.541-1.294.09-.244 2.966-12.472 2.966-12.677.04-.577-.31-1.05-.867-1.217-.13-.026-7.19-.052-7.487-.013z" fill="#E60012"/><path d="M12.406 6.032c-.713.09-1.425.68-1.658 1.358-.143.423-2.94 12.42-2.94 12.638-.027.628.336 1.09.932 1.205.22.052 7.293.052 7.526 0 .673-.128 1.308-.653 1.541-1.294.09-.244 2.966-12.472 2.966-12.677.04-.577-.31-1.05-.867-1.217-.143-.026-7.202-.052-7.5-.013z" fill="#00508E"/><path d="M19.284 6.032c-.713.09-1.425.68-1.658 1.358-.143.423-2.94 12.42-2.94 12.638-.026.628.336 1.09.932 1.205.22.052 5.48.052 5.712 0 .674-.128 1.309-.653 1.542-1.294.09-.244 2.966-12.472 2.966-12.677.039-.577-.31-1.05-.868-1.217-.13-.039-6.036-.064-6.334-.026h.648v.013z" fill="#00908C"/><path d="M5.592 9.928a.84.84 0 01-.038.167c-.298 1-.596 2.346-.557 2.512.103.5.842.462 1.1-.064.078-.14.635-2.486.635-2.653 0-.013.881 0 .881.013 0 0 0 .038-.013.077a41.3 41.3 0 00-.31 1.217c-.35 1.359-.39 1.5-.57 1.769-.597.872-2.591.846-2.747-.038-.039-.193.389-2.41.583-3.013 0-.038 1.036-.012 1.036.013zm13.239 0c.595.129.777.603.505 1.308-.272.705-.855 1.012-1.879 1.012-.31 0-.285-.051-.479.91-.039.18-.077.346-.077.372-.014.064-.933.064-.92 0 .777-3.294.842-3.576.842-3.602l.013-.038h.932c.739.013.946.013 1.063.038zm-7.993 1.27c.13.025.22.127.22.217 0 .32-.66.539-.906.295-.233-.244.259-.615.686-.513zm-2.292.243c0 .025-.013.077-.013.115l-.013.051.155-.077c.415-.205.816-.166.946.09.077.154.065.244-.143 1.192-.039.167-.09.398-.103.513-.052.256-.013.243-.48.243-.401 0-.401 0-.388-.038 0-.026.052-.23.103-.474.208-.91.22-1.038.04-1.038-.104 0-.247.064-.26.102-.026.09-.259 1.205-.272 1.307l-.026.116-.401.025c-.492.013-.454.052-.35-.384.142-.564.22-.961.272-1.32.065-.385.026-.346.389-.398.168-.025.336-.05.388-.064.13-.038.156-.025.156.039zm6.152-.013c0 .026-.013.077-.013.115l-.013.064.156-.077c.803-.41 1.114-.076.88.975-.051.23-.116.564-.155.717a1.36 1.36 0 01-.077.32c-.052.052-.816.04-.804 0 0-.025.052-.23.104-.46.22-.936.22-1.052.026-1.052-.155 0-.233.052-.259.167a29.107 29.107 0 00-.26 1.23l-.025.141-.402.013c-.492.013-.453.064-.336-.41.13-.513.22-.987.285-1.333.051-.333.013-.295.336-.346.143-.026.324-.051.39-.064.129-.064.167-.051.167 0zm7.863-.013c.052.782.065 1.013.065 1.026 0 .012.116-.193.246-.45.259-.512.207-.46.492-.499.078-.013.233-.038.35-.064.285-.051.285-.077-.04.487-.44.756-1.048 1.82-1.268 2.205-.661 1.192-.661 1.192-1.218 1.204l-.337.013.026-.09c.013-.05.052-.153.065-.23l.039-.141h.103c.117 0 .143-.026.246-.205.04-.064.104-.167.13-.231.039-.064.168-.27.272-.474l.207-.36-.052-.473a31.002 31.002 0 00-.18-1.397c-.027-.18-.027-.18.206-.206.104-.012.272-.05.363-.064.246-.076.272-.076.285-.05zm-9.767.013c.998.18.648 1.897-.44 2.14-.738.167-1.244-.115-1.244-.679.013-.987.752-1.628 1.684-1.461zm7.461.051c.052.026.13.077.169.116.064.064.064.064.064.025.013-.051 0-.051.519-.128.414-.064.401-.064.375.051-.168.718-.31 1.346-.375 1.654-.091.461-.026.41-.531.397h-.428v-.051c0-.051-.026-.077-.052-.039-.142.231-.842.141-1.036-.14-.48-.718.544-2.23 1.295-1.885zm-9.3.372s0 .064-.013.115c-.104.41-.285 1.244-.324 1.397l-.039.193-.427.012c-.505.013-.48.039-.376-.269.09-.295.182-.653.233-1.038.052-.333 0-.282.376-.333.168-.026.35-.051.389-.064.103-.026.168-.026.18-.013zm2.267 2.653a.528.528 0 01-.065.128c-.026.064-.065.116-.065.116.764.012.79.012.777.05l-.142.462h-1.114l-.065.052c-.142.128-.894.294-.894.192l.143-.462h.104c.18 0 .22-.038.375-.307l.13-.244c.673-.012.816 0 .816.013zm1.697 0a.8.8 0 01-.04.154.574.574 0 00-.038.14s.065-.025.142-.089c.285-.192.531-.23 1.257-.23.285 0 .53 0 .544.012.013.026-.415 1.41-.48 1.538-.09.167-.18.257-.323.32l-.13.052-.738.013-.738.013-.13.436c-.259.833-.259.769.117.73.298-.026.285-.051.194.256l-.078.257h-.375c-.816.013-.92-.039-.842-.372.039-.167.971-3.217.984-3.243.013-.012.674-.012.674.013zm3.406 0c0 .013-.013.051-.026.103-.038.128-.038.128.13.038.22-.115.738-.154 1.8-.154h.337v.154c0 .18.013.192.169.218l.116.013-.065.23-.064.231h-.234c-.595.013-.686-.051-.699-.397v-.167l-.039.116-.039.128h-.13c-.064 0-.129 0-.129.013 0 0-.634 2.089-.725 2.384-.013.025 0 .038.078.038.116 0 .116 0 .077.103-.039.115-.039.115.091.115.09 0 .143-.013.207-.051.09-.052.09-.039.505-.615l.169-.244h-.35c-.427 0-.388.026-.31-.23l.064-.206h.855c.078-.269.103-.346.103-.359 0-.013-.18-.013-.414-.013h-.414l.129-.461h1.166c.634 0 1.166 0 1.166.013s-.026.115-.065.23l-.065.218-.389.013-.388.013c-.065.192-.09.282-.104.308l-.013.051h.376c.44 0 .414-.026.324.23l-.065.206h-.855l-.13.154h.337l.052.307c.052.346.052.346.22.346.13 0 .13-.025.04.282l-.079.257H20.8c-.427 0-.505-.064-.583-.5l-.038-.282-.156.205c-.427.577-.453.59-.997.59-.35 0-.35 0-.298-.103.013-.051.013-.051-.09-.051-.104 0-.104 0-.13.077l-.013.076h-.726l.013-.038c.04-.128.104-.115-.686-.115-.687 0-.726 0-.713-.039l.065-.23c.078-.231.065-.231.143-.231.064 0 .064 0 .09-.09.61-2.012.803-2.653.83-2.743l.051-.166h.363c.233 0 .401.012.401.025zm-4.598 1.102l-.143.449h-.777a3.756 3.756 0 01-.116.359c-.013.038.013.038.388.038.22 0 .402.013.402.013 0 .013-.013.039-.026.077a2.144 2.144 0 00-.065.23l-.052.167h-.803l-.09.308c-.13.436-.117.449.375.385.208-.026.195-.052.104.256l-.078.256h-.544c-.855 0-.868-.025-.635-.756.065-.23.13-.423.13-.423s-.09-.013-.22-.013c-.117 0-.22 0-.22-.013.09-.32.129-.423.129-.448.013-.026.039-.039.233-.039h.22l.104-.397h-.207c-.156 0-.207 0-.207-.026 0-.025.116-.397.129-.435.026-.026 1.982-.013 1.969.012zm2.513.923c0 .026-.026.103-.039.167-.078.359-.181.436-.596.461l-.272.026c-.026.038-.026.346 0 .397l.039.052.26-.013c.142-.013.258-.013.258-.013 0 .026-.142.474-.155.487-.026.026-.816.013-.92-.026-.155-.05-.155-.038-.143-.846l.013-.705h.661v.27h.13c.142 0 .155-.013.22-.193l.039-.102h.259c.233.013.259.013.246.038zm1.217-5.486l-.142.616h.194c.998.025 1.412-1.115.44-1.192-.155-.013-.297-.026-.31-.026-.04 0-.04.038-.182.602zm-5.155.872c-.246.103-.48 1.025-.285 1.166.143.116.35-.077.454-.397.168-.59.116-.872-.169-.769zm7.72.064c-.259.128-.453 1.038-.259 1.14.26.142.596-.345.596-.87 0-.244-.143-.36-.337-.27zm-5.233 3.05l-.065.231c-.039.116-.064.218-.077.231 0 .013.064-.013.155-.064.26-.128.337-.154.712-.167l.324-.012c.052-.154.065-.218.065-.231.013-.013-1.1-.013-1.114.013zm-.22.744l-.052.205 1.114-.013.065-.205c-.881 0-1.127 0-1.127.013zm3.523-.461c-.052.166-.09.294-.078.294l.156-.05c.078-.027.22-.065.298-.078.078-.013.142-.025.155-.025 0 0 .13-.398.13-.41 0 0-.13-.013-.285-.013h-.285l-.09.282zm-.207.653c0 .013-.052.141-.09.295-.053.154-.091.295-.091.295 0 .013.064-.013.155-.051.09-.039.22-.077.298-.09.168-.026.181-.038.194-.103.013-.025.04-.128.065-.205l.052-.154h-.285c-.156 0-.298 0-.298.013zm-.453 1.474l.57.013c.116-.384.155-.513.155-.525l-.57-.026-.155.538z" fill="#FFF"/></g></svg>