<svg width="28" height="28" xmlns="http://www.w3.org/2000/svg"><path d="M10.285 16.723a.819.819 0 01-.385.089.835.835 0 01-.739-.444l-.059-.118-2.336-5.086c-.03-.06-.03-.118-.03-.178 0-.236.178-.414.414-.414.09 0 .178.03.267.09l2.75 1.95c.207.12.443.208.71.208.147 0 .295-.03.443-.089l12.892-5.736C21.906 4.275 18.092 2.5 13.774 2.5 6.736 2.5 1 7.26 1 13.145c0 3.194 1.715 6.091 4.406 8.043a.868.868 0 01.355.68c0 .089-.03.177-.06.266-.206.799-.561 2.1-.561 2.159-.03.088-.06.207-.06.325 0 .237.178.414.415.414.088 0 .177-.03.236-.089l2.78-1.626c.207-.118.443-.207.68-.207.118 0 .266.03.384.06 1.301.384 2.72.59 4.17.59 7.037 0 12.774-4.76 12.774-10.645 0-1.774-.533-3.46-1.45-4.938l-14.695 8.487-.09.059z" fill="#09BB07" fill-rule="evenodd"/></svg>