<svg width="32" height="32" xmlns="http://www.w3.org/2000/svg"><g fill="none" fill-rule="evenodd"><path fill-opacity="0" fill="#D8D8D8" d="M-42-6H73v64H-42z"/><g fill-rule="nonzero" fill="#EA5D5C"><path d="M14.022 15.07c-3.026.145-5.47 1.774-5.47 3.81s2.444 3.578 5.47 3.433c3.025-.146 5.469-2.066 5.469-4.102-.03-2.007-2.473-3.287-5.47-3.142zm2.036 5.148c-.93 1.222-2.763 1.804-4.538.815-.844-.466-.815-1.368-.815-1.368s-.349-2.88 2.677-3.229c3.054-.378 3.607 2.56 2.676 3.782z"/><path d="M14.022 18.27a.427.427 0 00-.117.58c.088.175.35.205.524.06.175-.146.262-.408.146-.583-.088-.174-.32-.203-.553-.058zm-1.426.406c-.581.059-.96.553-.96 1.048 0 .465.466.814 1.019.756.552-.058 1.018-.495 1.018-.99 0-.494-.437-.872-1.077-.814z"/><path d="M16 0C7.156 0 0 7.156 0 16c0 8.844 7.156 16 16 16 8.844 0 16-7.156 16-16 0-8.844-7.156-16-16-16zm6.167 19.578c-1.25 2.677-5.352 3.986-8.378 3.753-2.88-.233-6.604-1.193-6.982-4.742 0 0-.203-1.6 1.338-3.665 0 0 2.211-3.113 4.771-4.015 2.59-.873 2.88.611 2.88 1.513-.145.756-.378 1.193.582.902 0 0 2.531-1.193 3.578-.146.844.844.146 2.037.146 2.037s-.35.378.378.523c.67.117 2.938 1.164 1.687 3.84zm-2.502-7.389a.51.51 0 01-.494-.494.49.49 0 01.494-.495s3.113-.582 2.735 2.793v.058a.503.503 0 01-.495.436.49.49 0 01-.494-.494c0-.058.494-2.298-1.746-1.804zm5.266 3.23c-.087.581-.378.348-.698.348-.408 0-.728-.523-.728-.93 0-.35.146-.699.146-.699.029-.145.378-1.076-.233-2.443-1.105-1.891-3.316-1.891-3.578-1.804-.262.116-.67.174-.67.174a.72.72 0 01-.726-.727c0-.349.232-.61.523-.698 0 0 0 .03.03.03.028 0 .058.028.058.028.32-.058 1.425-.145 2.472.117 1.95.465 4.568 2.618 3.404 6.603z"/></g></g></svg>