<svg width="32" height="32" xmlns="http://www.w3.org/2000/svg"><g fill="none" fill-rule="evenodd"><path fill-opacity="0" fill="#D8D8D8" d="M-41-4H74v64H-41z"/><path d="M14.493 18.24c-1.45-2.5-.272-.719-.525-1.48-.807-2.424 1.51-2.624 3.653-3.4l.968-.21c1.004-.236 1.672-.196 1.6-.196-.446 0-.882.05-1.3.135 0 .004-1.153-.139-1.153-.135l-6.8 2.682s3.56 2.603 3.557 2.603c.132.55.218.897.36 1.49.008 0-.007 0 0 0l-.36-1.49zm-.779-8.336c-2.946 0-5.332 1.875-5.332 4.189 0 1.464.9 2.45 1.597 2.99.182.142.417 1.2.689 1.2.44 0 .736-.4 1.121-.287.511.15 1.179.286 1.925.286.265 0 .525-.014.779-.046-.007-.097-.018-.19-.018-.29 0-2.371 1.904-4.41 4.414-4.864-.571-1.821-2.671-3.178-5.175-3.178zm-2.668 3.81c-.632 0-1.142-.343-1.142-.76 0-.422.51-.761 1.142-.761.633 0 1.143.343 1.143.76 0 .418-.51.761-1.143.761zm3.811 0c-.632 0-1.143-.343-1.143-.76 0-.422.511-.761 1.143-.761s1.143.343 1.143.76c0 .418-.51.761-1.143.761zm5.332 7.904a5.46 5.46 0 001.604-.25c.321-.1.571.25.936.25.225 0 .421-.929.575-1.05.578-.472 1.328-1.332 1.328-2.614 0-2.025-1.99-3.668-4.443-3.668-2.189 0-5.082 1.375-4.375 4.289.361 1.729 2.179 3.043 4.375 3.043zm2.286-4.857c.632 0 1.143.343 1.143.76 0 .422-.51.761-1.143.761-.632 0-1.143-.343-1.143-.76 0-.418.514-.761 1.143-.761zm-3.807 0c.632 0 1.143.343 1.143.76 0 .422-.511.761-1.143.761s-1.143-.343-1.143-.76c0-.418.51-.761 1.143-.761zM16 0C7.164 0 0 7.164 0 16s7.164 16 16 16 16-7.164 16-16S24.836 0 16 0zm8.04 21.65c-.222.179.203 1.971-.04 1.971-.504 0-1.5-1.085-1.771-1a6.695 6.695 0 01-2.04.333c-2.439 0-4.514-1.34-5.335-3.222a7.96 7.96 0 01-1.14.079 8.4 8.4 0 01-2.446-.379c-.325-.1-1.522 1.14-2.125 1.14-.293 0 .221-2.05-.047-2.254-1.375-1.047-2.239-2.55-2.239-4.225 0-3.157 3.068-5.714 6.857-5.714 3.307 0 6.072 1.953 6.715 4.553l-.025.029c3.057.1 5.5 2.293 5.5 4.989 0 1.468-.718 2.786-1.865 3.7z" fill="#66D020" fill-rule="nonzero"/></g></svg>