<svg width="32" height="32" xmlns="http://www.w3.org/2000/svg"><g fill="none" fill-rule="evenodd"><path fill-opacity="0" fill="#D8D8D8" d="M-42-6H73v64H-42z"/><g fill-rule="nonzero"><path d="M20.91.843S18.828 0 15.684 0c-3.145 0-5.227.965-5.227.965l10.457 10.64L20.91.843z" fill="#FB5453"/><path d="M26.837 4.688c-2.308-2.189-4.54-2.969-4.54-2.969l-.076 14.614 7.842-7.43c0 .003-.914-2.026-3.226-4.215z" fill="#6468F1"/><path d="M30.39 10.315L19.605 20.631h10.909s.855-2.054.855-5.16c-.003-3.1-.98-5.156-.98-5.156z" fill="#5283F0"/><path d="M22.566 29.657s2.118-.851 4.4-3.004c2.282-2.153 3.097-4.23 3.097-4.23l-15.25-.073 7.753 7.307z" fill="#00B2FE"/><path d="M10.46 30.534s2.082.842 5.227.842c3.148 0 5.227-.965 5.227-.965L10.457 19.77l.003 10.763z" fill="#66D020"/><path d="M4.969 26.688c2.308 2.19 4.54 2.969 4.54 2.969l.076-14.614-7.842 7.43c.003-.003.917 2.026 3.226 4.215z" fill="#9AD122"/><path d="M.856 10.315S0 12.37 0 15.473c0 3.104.978 5.158.978 5.158l10.786-10.312H.856v-.004z" fill="#FFC71A"/><path d="M9.24 1.72s-2.118.85-4.4 3.003c-2.282 2.153-3.097 4.23-3.097 4.23l15.25.073L9.24 1.719z" fill="#FF7612"/></g></g></svg>